<svg width="98" height="37" viewBox="0 0 98 37" fill="none" xmlns="http://www.w3.org/2000/svg">
<path d="M19.3492 28.5677H12.725L5.94187 17.9192C5.70577 17.4852 5.49988 17.0337 5.32583 16.5684H5.24413V28.5677H0V4.05752H5.24192V15.6454H5.32362C5.45463 15.3261 5.67102 14.8703 5.97279 14.2782L12.4026 4.04822H18.6514L10.5346 15.7477L19.3492 28.5677Z" fill="#2A327E"/>
<path d="M23.2113 10.1004C22.429 10.1331 21.6657 9.84179 21.0849 9.289C20.8194 9.03867 20.6081 8.73123 20.4653 8.38747C20.3224 8.04371 20.2514 7.67165 20.2569 7.29647C20.2465 6.92192 20.3154 6.54962 20.4586 6.2066C20.6018 5.86357 20.8158 5.5584 21.0849 5.31324C21.6948 4.8159 22.4443 4.54602 23.2157 4.54602C23.9871 4.54602 24.7366 4.8159 25.3465 5.31324C25.6132 5.55992 25.825 5.86559 25.9666 6.20842C26.1082 6.55125 26.1762 6.92278 26.1656 7.29647C26.1762 7.67528 26.1084 8.05199 25.967 8.40047C25.8255 8.74894 25.6138 9.06085 25.3465 9.31457C24.7565 9.85464 23.9923 10.1359 23.2113 10.1004ZM25.6953 22.6369C25.6953 23.3778 25.8631 23.9389 26.1988 24.3202C26.3707 24.5124 26.5801 24.6633 26.8126 24.7624C27.045 24.8616 27.2951 24.9066 27.5457 24.8944C27.8288 24.8936 28.1112 24.8648 28.3891 24.8084L29.2348 24.6364V28.4331C28.5901 28.6086 27.9371 28.7483 27.2785 28.8516C26.5663 28.9604 25.8475 29.014 25.1279 29.012C24.4919 29.0215 23.8603 28.8999 23.2687 28.654C22.7253 28.4254 22.2372 28.0719 21.8401 27.6193C21.4316 27.1485 21.119 26.5946 20.9215 25.9918C20.6966 25.2992 20.5868 24.5708 20.5969 23.8389V11.0653H25.6953V22.6369Z" fill="#2A327E"/>
<path d="M46.5921 28.569H41.4783V18.8435C41.4783 16.1325 40.5582 14.7763 38.7182 14.7747C38.2989 14.7658 37.8833 14.8582 37.5032 15.0448C37.1231 15.2315 36.7887 15.5073 36.5256 15.8512C35.9352 16.6244 35.6301 17.5963 35.6667 18.5877V28.569H30.5374V11.0663H35.6667V13.8447H35.7307C36.954 11.715 38.7344 10.6494 41.072 10.6478C44.7521 10.6478 46.5921 13.0503 46.5921 17.8553V28.569Z" fill="#2A327E"/>
<path d="M59.7809 6.79204C59.1781 6.53067 58.5338 6.39182 57.882 6.38284C56.2348 6.38284 55.4119 7.32291 55.4134 9.20307V11.0631H59.2112V15.0458H55.4134V28.5657H50.2995V15.0481H47.5085V11.0654H50.2995V8.89384C50.2995 6.90208 50.9163 5.29551 52.1499 4.07411C53.3842 2.8558 55.5768 2.24432 57.6965 2.24432C58.5741 2.22189 59.45 2.33708 60.2954 2.5861L59.7809 6.79204Z" fill="#2A327E"/>
<path d="M64.1639 10.1004C63.3816 10.1331 62.6183 9.8418 62.0375 9.289C61.7721 9.03867 61.5608 8.73123 61.4179 8.38747C61.2751 8.04371 61.204 7.67165 61.2095 7.29647C61.1991 6.92192 61.268 6.54962 61.4113 6.2066C61.5545 5.86357 61.7684 5.55841 62.0375 5.31324C62.6474 4.8159 63.3969 4.54602 64.1683 4.54602C64.9397 4.54602 65.6892 4.8159 66.2991 5.31324C66.5659 5.55992 66.7777 5.86559 66.9193 6.20842C67.0609 6.55125 67.1288 6.92278 67.1183 7.29647C67.1289 7.67528 67.0611 8.05199 66.9196 8.40047C66.7782 8.74894 66.5664 9.06085 66.2991 9.31457C65.7091 9.85465 64.9449 10.1359 64.1639 10.1004ZM66.648 22.6369C66.648 23.3778 66.8158 23.9389 67.1514 24.3202C67.3232 24.5126 67.5326 24.6635 67.7651 24.7627C67.9976 24.8618 68.2477 24.9068 68.4983 24.8944C68.7814 24.8935 69.0638 24.8647 69.3418 24.8084L70.1853 24.6364V28.4331C69.5407 28.609 68.8876 28.7487 68.2289 28.8516C67.5167 28.9604 66.7979 29.0141 66.0783 29.012C65.443 29.0213 64.8122 28.8997 64.2213 28.654C63.6776 28.426 63.1894 28.0724 62.7927 27.6193C62.3843 27.1485 62.0717 26.5947 61.8741 25.9918C61.6492 25.2992 61.5394 24.5708 61.5496 23.8389V11.0653H66.648V22.6369Z" fill="#2A327E"/>
<path d="M72.5258 21.7706C74.3553 20.7596 75.7819 19.0941 76.5489 17.0741C76.6745 16.7565 76.8345 16.4554 77.0258 16.1766C77.3268 15.7278 77.7293 15.3651 78.197 15.1215C78.6647 14.8779 79.1828 14.7611 79.7042 14.7816C80.1666 14.7664 80.6261 14.8634 81.0472 15.0649C81.4684 15.2665 81.8399 15.5673 82.133 15.9441C82.2653 16.1115 82.3849 16.2895 82.4908 16.4765L88.1323 13.4796C88.1323 12.8389 87.8906 12.2245 87.4604 11.7714C87.0301 11.3184 86.4466 11.0639 85.8382 11.0639H83.003V13.0983H82.939C81.9321 11.4568 80.4174 10.6361 78.3948 10.6361C76.1323 10.6361 74.3084 11.508 72.9233 13.2517C71.5381 14.9955 70.8455 17.3484 70.8455 20.3105C70.844 21.067 70.9038 21.8222 71.0243 22.568L72.5258 21.7706Z" fill="#48AD50"/>
<path d="M83.065 19.7958V20.1585C83.065 21.5721 82.7374 22.709 82.0824 23.5693C81.7807 23.9829 81.3904 24.3154 80.9433 24.5397C80.4962 24.764 80.0051 24.8736 79.51 24.8597C79.0214 24.8794 78.5356 24.7737 78.0944 24.5517C77.6532 24.3298 77.2698 23.9982 76.9774 23.5856C76.9398 23.5344 76.9067 23.4763 76.8692 23.4228L72.3162 26.0873C72.4398 26.2756 72.5679 26.4616 72.707 26.6383C73.9523 28.21 75.6356 28.9959 77.7568 28.9959C80.0399 28.9959 81.7659 28.0163 82.9347 26.0571H83.0031V27.4521C83.0031 29.1044 82.5277 30.4118 81.5767 31.3743C80.6258 32.3369 79.2833 32.8189 77.5492 32.8205C75.7204 32.7945 73.9319 32.2508 72.3714 31.2465L72.8858 35.7942C74.196 36.4653 75.9705 36.8017 78.2094 36.8032C81.5966 36.8032 83.67 35.9104 85.4563 34.1271C87.2426 32.3439 88.1346 29.8282 88.1346 26.5802V16.8314L83.065 19.7958Z" fill="#2A327E"/>
<path d="M86.5358 9.44088C86.5358 9.44088 81.539 8.29232 83.9745 0.196655C83.9745 0.196655 89.4196 4.04221 88.3906 8.2249C88.3906 8.2249 89.9914 4.71647 93.0032 4.37934C94.7063 4.20824 96.3838 3.82343 98.0001 3.23311C98.0001 3.23311 96.0791 12.3402 89.6713 10.5871C89.6713 10.5871 93.425 9.74778 94.8624 6.80897C94.8624 6.80897 86.7257 13.6236 84.9262 4.25147C84.9284 4.24449 84.3521 5.19077 86.5358 9.44088Z" fill="#48AD50"/>
</svg>
