<svg width="28" height="28" viewBox="0 0 28 28" fill="none" xmlns="http://www.w3.org/2000/svg">
<circle cx="14.0003" cy="5.44962" r="4.56046" fill="#D4D4D4" stroke="#D4D4D4" stroke-width="1.5"/>
<circle cx="5.31021" cy="16.0702" r="4.56046" fill="#D4D4D4" stroke="#D4D4D4" stroke-width="1.5"/>
<circle cx="22.6897" cy="16.0702" r="4.56046" fill="#D4D4D4" stroke="#D4D4D4" stroke-width="1.5"/>
<line x1="14.2677" y1="12.4744" x2="14.2677" y2="26.423" stroke="#D4D4D4" stroke-width="1.5" stroke-linecap="round"/>
<path d="M10.8383 20.3872C10.5454 20.0943 10.0705 20.0943 9.77765 20.3872C9.48476 20.68 9.48476 21.1549 9.77765 21.4478L10.8383 20.3872ZM13.1377 24.8079L13.6681 25.3382L14.7287 24.2776L14.1984 23.7472L13.1377 24.8079ZM9.77765 21.4478L13.1377 24.8079L14.1984 23.7472L10.8383 20.3872L9.77765 21.4478Z" fill="#D4D4D4"/>
<path d="M17.0223 21.353C16.7294 21.6459 16.7294 22.1207 17.0223 22.4136C17.3152 22.7065 17.79 22.7065 18.0829 22.4136L17.0223 21.353ZM20.323 20.1736L20.8533 19.6433L19.7927 18.5826L19.2623 19.1129L20.323 20.1736ZM18.0829 22.4136L20.323 20.1736L19.2623 19.1129L17.0223 21.353L18.0829 22.4136Z" fill="#D4D4D4"/>
<path d="M8.95996 26.3635L19.0402 26.3635" stroke="#D4D4D4" stroke-width="1.5" stroke-linecap="round"/>
</svg>
