<svg width="30" height="30" viewBox="0 0 30 30" fill="none" xmlns="http://www.w3.org/2000/svg">
<path d="M11.4185 25.9684V22.1462C11.4185 21.1705 12.2152 20.3796 13.198 20.3796H16.7908C17.2627 20.3796 17.7154 20.5657 18.0491 20.897C18.3828 21.2283 18.5703 21.6777 18.5703 22.1462V25.9684C18.5674 26.374 18.7276 26.7641 19.0155 27.0519C19.3033 27.3398 19.6951 27.5017 20.1037 27.5017H22.5548C23.6995 27.5046 24.7984 27.0553 25.609 26.2527C26.4195 25.4502 26.875 24.3604 26.875 23.224V12.3353C26.875 11.4173 26.4651 10.5465 25.7558 9.95754L17.4175 3.34655C15.9671 2.18741 13.8889 2.22484 12.4817 3.43543L4.33377 9.95754C3.59093 10.5291 3.14694 11.4025 3.125 12.3353V23.2129C3.125 25.5815 5.05923 27.5017 7.44522 27.5017H9.84036C10.689 27.5017 11.3787 26.822 11.3849 25.9795L11.4185 25.9684Z" fill="#D4D4D4"/>
</svg>
