<svg width="30" height="30" viewBox="0 0 30 30" fill="none" xmlns="http://www.w3.org/2000/svg">
<path fill-rule="evenodd" clip-rule="evenodd" d="M19.8123 3.12587C20.601 3.12587 21.3885 3.23712 22.1373 3.48837C26.751 4.98837 28.4135 10.0509 27.0248 14.4759C26.2373 16.7371 24.9498 18.8009 23.2635 20.4871C20.8498 22.8246 18.201 24.8996 15.3498 26.6871L15.0373 26.8759L14.7123 26.6746C11.851 24.8996 9.18728 22.8246 6.75103 20.4746C5.07603 18.7884 3.78728 16.7371 2.98728 14.4759C1.57478 10.0509 3.23728 4.98837 7.90103 3.46212C8.26353 3.33712 8.63728 3.24962 9.01228 3.20087H9.16228C9.51353 3.14962 9.86228 3.12587 10.2123 3.12587H10.3498C11.1373 3.14962 11.8998 3.28712 12.6385 3.53837H12.7123C12.7623 3.56212 12.7998 3.58837 12.8248 3.61212C13.101 3.70087 13.3623 3.80087 13.6123 3.93837L14.0873 4.15087C14.2021 4.21209 14.3309 4.30562 14.4422 4.38646C14.5128 4.43768 14.5763 4.4838 14.6248 4.51337C14.6452 4.52541 14.6659 4.53751 14.6868 4.54971C14.794 4.61227 14.9056 4.67745 14.9998 4.74962C16.3885 3.68837 18.0748 3.11337 19.8123 3.12587ZM23.1373 12.1259C23.6498 12.1121 24.0873 11.7009 24.1248 11.1746V11.0259C24.1623 9.27462 23.101 7.68837 21.4873 7.07587C20.9748 6.89962 20.4123 7.17587 20.2248 7.70087C20.0498 8.22587 20.3248 8.80087 20.8498 8.98712C21.651 9.28712 22.1873 10.0759 22.1873 10.9496V10.9884C22.1635 11.2746 22.2498 11.5509 22.4248 11.7634C22.5998 11.9759 22.8623 12.0996 23.1373 12.1259Z" fill="#f5182b"/>
</svg>
