<svg xmlns="http://www.w3.org/2000/svg" width="31" height="30" viewBox="0 0 31 30" fill="none">
<path fill-rule="evenodd" clip-rule="evenodd" d="M23.8838 10.9971C23.8838 12.567 24.2988 13.4924 25.2119 14.5587C25.9039 15.3443 26.125 16.3527 26.125 17.4467C26.125 18.5395 25.766 19.5769 25.0467 20.4191C24.105 21.4288 22.7769 22.0734 21.4216 22.1854C19.4574 22.3529 17.4921 22.4939 15.5006 22.4939C13.5079 22.4939 11.5438 22.4095 9.57969 22.1854C8.22307 22.0734 6.89502 21.4288 5.95458 20.4191C5.23527 19.5769 4.875 18.5395 4.875 17.4467C4.875 16.3527 5.09738 15.3443 5.78811 14.5587C6.72979 13.4924 7.1174 12.567 7.1174 10.9971V10.4646C7.1174 8.36213 7.64166 6.98736 8.72124 5.64154C10.3263 3.67883 12.8992 2.50171 15.4447 2.50171H15.5565C18.1567 2.50171 20.8128 3.73548 22.3906 5.78254C23.4142 7.10066 23.8838 8.41753 23.8838 10.4646V10.9971ZM11.8421 25.0778C11.8421 24.4483 12.4198 24.16 12.954 24.0366C13.5789 23.9044 17.3866 23.9044 18.0115 24.0366C18.5457 24.16 19.1234 24.4483 19.1234 25.0778C19.0923 25.677 18.7407 26.2083 18.255 26.5457C17.6251 27.0367 16.8859 27.3476 16.1132 27.4597C15.6859 27.5151 15.2659 27.5163 14.8535 27.4597C14.0795 27.3476 13.3403 27.0367 12.7117 26.5444C12.2247 26.2083 11.8732 25.677 11.8421 25.0778Z" fill="#459f56"/>
</svg>