<svg width="20" height="20" viewBox="0 0 20 20" fill="none" xmlns="http://www.w3.org/2000/svg">
<path fill-rule="evenodd" clip-rule="evenodd" d="M19.7046 2.59154C20.0162 1.18588 18.709 -0.0825198 17.2937 0.327077L1.63713 4.88281L1.48604 4.93304C0.0164524 5.48611 -0.20903 7.53286 1.16744 8.38023L7.64297 12.3661L11.5387 18.8202L11.6263 18.9534C12.5395 20.2329 14.5618 19.923 15.0228 18.372L19.668 2.73251L19.7046 2.59154ZM17.7846 1.75323C18.0734 1.72222 18.3202 2.00312 18.2303 2.30473L13.585 17.9448L13.5545 18.0214C13.4093 18.3069 12.9985 18.336 12.823 18.0451L9.13497 11.9361L14.3875 6.64975L14.4598 6.56539C14.6767 6.27106 14.6511 5.85447 14.3839 5.5891L14.2996 5.51676C14.0052 5.29988 13.5887 5.32548 13.3233 5.59263L8.07797 10.8721L1.95374 7.10284L1.88762 7.05318C1.64978 6.83652 1.72984 6.41781 2.05573 6.32322L17.7117 1.76765L17.7846 1.75323Z" fill="#333335"/>
</svg>
