<svg width="24" height="24" viewBox="0 0 24 24" fill="none" xmlns="http://www.w3.org/2000/svg">
<path fill-rule="evenodd" clip-rule="evenodd" d="M21.9999 3.48011C21.9999 2.66358 21.3244 1.99988 20.4933 1.99988H3.49996C2.66775 1.99988 1.99219 2.66358 1.99219 3.48011C1.99219 4.29774 2.66775 4.96144 3.49996 4.96144H20.4933C21.3244 4.96144 21.9999 4.29774 21.9999 3.48011ZM10.0832 18.9999H3.50773C2.67551 18.9999 1.99996 19.6636 1.99996 20.4812C1.99996 21.2977 2.67551 21.9625 3.50773 21.9625H10.0832C10.9155 21.9625 11.591 21.2977 11.591 20.4812C11.591 19.6636 10.9155 18.9999 10.0832 18.9999ZM20.4933 9.99988C21.3244 9.99988 21.9999 10.6636 21.9999 11.4801C21.9999 12.2977 21.3244 12.9614 20.4933 12.9614H3.49996C2.66774 12.9614 1.99219 12.2977 1.99219 11.4801C1.99219 10.6636 2.66774 9.99988 3.49996 9.99988H20.4933Z" fill="#333335"/>
</svg>
